<svg xmlns="http://www.w3.org/2000/svg" xmlns:xlink="http://www.w3.org/1999/xlink" width="500" zoomAndPan="magnify" viewBox="0 0 375 374.999991" height="500" preserveAspectRatio="xMidYMid meet" version="1.0"><defs><g/><clipPath id="18b0b76726"><path d="M 124 92 L 165 92 L 165 133 L 124 133 Z M 124 92 " clip-rule="nonzero"/></clipPath><clipPath id="969a0d918c"><path d="M 129.71875 88.957031 L 168.230469 101.488281 L 156.164062 138.578125 L 117.652344 126.046875 Z M 129.71875 88.957031 " clip-rule="nonzero"/></clipPath><clipPath id="6f9152ae89"><path d="M 135.128906 72.332031 L 187.90625 89.503906 L 170.269531 143.707031 L 117.492188 126.535156 Z M 135.128906 72.332031 " clip-rule="nonzero"/></clipPath><clipPath id="7648d56c73"><path d="M 159 88 L 169 88 L 169 111 L 159 111 Z M 159 88 " clip-rule="nonzero"/></clipPath><clipPath id="37c6514106"><path d="M 129.71875 88.957031 L 168.230469 101.488281 L 156.164062 138.578125 L 117.652344 126.046875 Z M 129.71875 88.957031 " clip-rule="nonzero"/></clipPath><clipPath id="f8304a8685"><path d="M 135.128906 72.332031 L 187.90625 89.503906 L 170.269531 143.707031 L 117.492188 126.535156 Z M 135.128906 72.332031 " clip-rule="nonzero"/></clipPath><clipPath id="e80280c02c"><path d="M 346.019531 199.515625 L 357.269531 199.515625 L 357.269531 210.015625 L 346.019531 210.015625 Z M 346.019531 199.515625 " clip-rule="nonzero"/></clipPath><clipPath id="d4bcd207e5"><path d="M 354 199.515625 L 357.269531 199.515625 L 357.269531 202 L 354 202 Z M 354 199.515625 " clip-rule="nonzero"/></clipPath><clipPath id="92005effce"><path d="M 334.769531 201.230469 L 357.269531 201.230469 L 357.269531 222.828125 L 334.769531 222.828125 Z M 334.769531 201.230469 " clip-rule="nonzero"/></clipPath><clipPath id="11636a10e5"><path d="M 351 201.230469 L 357.269531 201.230469 L 357.269531 206 L 351 206 Z M 351 201.230469 " clip-rule="nonzero"/></clipPath></defs><g fill="#fffdfd" fill-opacity="0.4"><g transform="translate(62.620321, 193.910498)"><g><path d="M 46.234375 5.375 L 48.234375 -11.875 C 48.484375 -14 48.820312 -16.175781 49.25 -18.40625 C 49.675781 -20.644531 50.066406 -22.515625 50.421875 -24.015625 C 50.785156 -25.523438 51.019531 -26.488281 51.125 -26.90625 L 50.84375 -26.9375 L 38.25 4.4375 L 26.21875 3.046875 L 21.078125 -30.3125 L 20.796875 -30.34375 C 20.796875 -29.925781 20.804688 -28.953125 20.828125 -27.421875 C 20.859375 -25.890625 20.835938 -23.988281 20.765625 -21.71875 C 20.691406 -19.445312 20.53125 -17.25 20.28125 -15.125 L 18.28125 2.125 L 4.171875 0.484375 L 9.734375 -47.34375 L 31.4375 -44.828125 L 35.4375 -16.390625 L 35.71875 -16.359375 L 46.109375 -43.125 L 67.03125 -40.6875 L 61.46875 7.140625 Z M 46.234375 5.375 "/></g></g></g><g fill="#fffdfd" fill-opacity="1"><g transform="translate(59.904303, 190.480646)"><g><path d="M 46.234375 5.375 L 48.234375 -11.875 C 48.484375 -14 48.820312 -16.175781 49.25 -18.40625 C 49.675781 -20.644531 50.066406 -22.515625 50.421875 -24.015625 C 50.785156 -25.523438 51.019531 -26.488281 51.125 -26.90625 L 50.84375 -26.9375 L 38.25 4.4375 L 26.21875 3.046875 L 21.078125 -30.3125 L 20.796875 -30.34375 C 20.796875 -29.925781 20.804688 -28.953125 20.828125 -27.421875 C 20.859375 -25.890625 20.835938 -23.988281 20.765625 -21.71875 C 20.691406 -19.445312 20.53125 -17.25 20.28125 -15.125 L 18.28125 2.125 L 4.171875 0.484375 L 9.734375 -47.34375 L 31.4375 -44.828125 L 35.4375 -16.390625 L 35.71875 -16.359375 L 46.109375 -43.125 L 67.03125 -40.6875 L 61.46875 7.140625 Z M 46.234375 5.375 "/></g></g></g><g fill="#fffdfd" fill-opacity="1"><g transform="translate(133.041661, 197.142306)"><g><path d="M 37.453125 0 L 35.421875 -6.796875 L 18.546875 -6.796875 L 16.515625 0 L 0.703125 0 L 18.265625 -48.15625 L 36.265625 -48.15625 L 53.828125 0 Z M 21.765625 -17.5625 L 32.203125 -17.5625 L 27.15625 -34.71875 L 26.875 -34.71875 Z M 21.765625 -17.5625 "/></g></g></g><g fill="#ffd8e3" fill-opacity="1"><g transform="translate(184.995368, 192.696228)"><g><path d="M 37.34375 -43.25 C 41.894531 -42.457031 45.863281 -41.054688 49.25 -39.046875 C 52.644531 -37.035156 55.179688 -34.5 56.859375 -31.4375 C 58.535156 -28.375 59.035156 -24.914062 58.359375 -21.0625 L 43.796875 -23.59375 C 44.140625 -25.5625 43.546875 -27.304688 42.015625 -28.828125 C 40.484375 -30.359375 38.476562 -31.335938 36 -31.765625 C 32.40625 -32.390625 29.519531 -31.90625 27.34375 -30.3125 C 25.175781 -28.71875 23.789062 -26.171875 23.1875 -22.671875 L 22.421875 -18.265625 C 21.816406 -14.765625 22.265625 -11.898438 23.765625 -9.671875 C 25.273438 -7.453125 27.828125 -6.03125 31.421875 -5.40625 C 33.898438 -4.976562 36.113281 -5.203125 38.0625 -6.078125 C 40.007812 -6.953125 41.144531 -8.304688 41.46875 -10.140625 L 30.703125 -12 L 32.375 -21.65625 L 57.703125 -17.265625 L 53.109375 9.21875 L 45.25 7.859375 L 44.53125 2.890625 C 39.570312 5.828125 33.597656 6.6875 26.609375 5.46875 C 18.753906 4.101562 13.207031 1.023438 9.96875 -3.765625 C 6.726562 -8.566406 5.816406 -15.035156 7.234375 -23.171875 C 8.628906 -31.222656 11.925781 -36.941406 17.125 -40.328125 C 22.320312 -43.710938 29.0625 -44.6875 37.34375 -43.25 Z M 37.34375 -43.25 "/></g></g></g><path stroke-linecap="butt" transform="matrix(0.73895, 0.128271, -0.128271, 0.73895, 194.790474, 118.179967)" fill="none" stroke-linejoin="miter" d="M 39.191786 30.675782 C 45.360293 30.672833 50.893781 31.61005 55.800731 33.47539 C 60.723966 35.343189 64.628241 38.101505 67.512666 41.745207 C 70.416727 45.380213 71.867036 49.806765 71.864485 55.029993 L 52.178988 55.03222 C 52.179837 52.357245 50.996528 50.19971 48.623928 48.560507 C 46.253788 46.905017 43.392564 46.074844 40.036016 46.076009 C 35.188711 46.076924 31.522313 47.368851 29.0308 49.947548 C 26.535047 52.532267 25.292333 56.184028 25.293286 60.909743 L 25.293176 66.877905 C 25.294129 71.60362 26.536308 75.257509 29.029975 77.837789 C 31.519402 80.424091 35.189443 81.711208 40.032507 81.716315 C 43.394187 81.71426 46.253918 80.921822 48.622854 79.342354 C 50.99425 77.746599 52.179337 75.711853 52.178114 73.238114 L 37.619913 73.238399 L 37.617596 60.160692 L 71.866427 60.15729 L 71.865977 95.997941 L 61.225198 96.00014 L 59.175361 89.642463 C 53.327206 94.627571 45.670945 97.114272 36.209251 97.117961 C 25.572712 97.114137 17.573656 94.337119 12.215432 88.775753 C 6.86569 83.202342 4.194018 74.906839 4.191045 63.896159 C 4.192274 53.001045 7.22103 44.746842 13.281555 39.127526 C 19.359934 33.489252 27.995264 30.674011 39.191786 30.675782 Z M 39.191786 30.675782 " stroke="#fffdfd" stroke-width="3.499999" stroke-opacity="1" stroke-miterlimit="4"/><g fill="#fffdfd" fill-opacity="1"><g transform="translate(243.390413, 193.609264)"><g><path d="M 5.875 0 L 5.875 -48.15625 L 21.34375 -48.15625 L 21.34375 0 Z M 5.875 0 "/></g></g></g><g fill="#fffdfd" fill-opacity="1"><g transform="translate(273.215931, 196.953925)"><g><path d="M 20.140625 -52.796875 C 27.179688 -53.910156 33.035156 -53.03125 37.703125 -50.15625 C 42.367188 -47.28125 45.21875 -42.566406 46.25 -36.015625 L 31.65625 -33.71875 C 31.21875 -36.476562 30.144531 -38.546875 28.4375 -39.921875 C 26.726562 -41.304688 24.535156 -41.789062 21.859375 -41.375 C 18.773438 -40.882812 16.660156 -39.554688 15.515625 -37.390625 C 14.367188 -35.222656 14.070312 -32.410156 14.625 -28.953125 L 15.3125 -24.546875 C 15.851562 -21.128906 17.003906 -18.554688 18.765625 -16.828125 C 20.535156 -15.097656 22.921875 -14.472656 25.921875 -14.953125 C 28.859375 -15.410156 30.96875 -16.519531 32.25 -18.28125 C 33.539062 -20.050781 33.96875 -22.320312 33.53125 -25.09375 L 47.640625 -27.3125 C 48.660156 -20.800781 47.445312 -15.503906 44 -11.421875 C 40.5625 -7.335938 35.203125 -4.722656 27.921875 -3.578125 C 19.804688 -2.285156 13.335938 -3.382812 8.515625 -6.875 C 3.691406 -10.375 0.640625 -16.175781 -0.640625 -24.28125 C -1.921875 -32.394531 -0.804688 -38.851562 2.703125 -43.65625 C 6.210938 -48.457031 12.023438 -51.503906 20.140625 -52.796875 Z M 20.140625 -52.796875 "/></g></g></g><g fill="#f1718e" fill-opacity="0.4"><g transform="translate(69.450593, 137.72162)"><g><path d="M 35.0625 0 L 19.59375 0 L 19.59375 -18.6875 L 0.484375 -48.15625 L 18.265625 -48.15625 L 27.515625 -32.125 L 27.796875 -32.125 L 37.03125 -48.15625 L 53.90625 -48.15625 L 35.0625 -18.6875 Z M 35.0625 0 "/></g></g></g><g fill="#fffdfd" fill-opacity="1"><g transform="translate(66.357005, 134.62803)"><g><path d="M 35.0625 0 L 19.59375 0 L 19.59375 -18.6875 L 0.484375 -48.15625 L 18.265625 -48.15625 L 27.515625 -32.125 L 27.796875 -32.125 L 37.03125 -48.15625 L 53.90625 -48.15625 L 35.0625 -18.6875 Z M 35.0625 0 "/></g></g></g><path stroke-linecap="butt" transform="matrix(0.75, 0, 0, 0.75, 174.616603, 68.40193)" fill="none" stroke-linejoin="miter" d="M 70.839325 70.135973 C 70.839325 78.917224 68.068492 85.609932 62.521616 90.214099 C 56.995574 94.813058 49.125782 97.115141 38.917448 97.115141 C 28.709114 97.115141 20.818488 94.813058 15.245571 90.214099 C 9.683071 85.609932 6.901821 78.917224 6.901821 70.135973 L 6.901821 31.792221 L 27.526822 31.792221 L 27.526822 69.86514 C 27.526822 73.479723 28.490364 76.359932 30.417447 78.500557 C 32.349739 80.641182 35.151823 81.714099 38.828906 81.714099 C 42.500782 81.714099 45.31849 80.625557 47.282032 78.453682 C 49.240365 76.281807 50.219532 73.417223 50.219532 69.86514 L 50.219532 31.792221 L 70.839325 31.792221 Z M 70.839325 70.135973 " stroke="#fffdfd" stroke-width="3.499999" stroke-opacity="1" stroke-miterlimit="4"/><g fill="#ffd8e3" fill-opacity="1"><g transform="translate(299.967033, 258.889189)"><g><path d="M 51.734375 -32.046875 C 51.660156 -29.109375 50.796875 -26.472656 49.140625 -24.140625 C 47.492188 -21.804688 45.144531 -20.117188 42.09375 -19.078125 L 52.28125 1.359375 L 34.921875 0.90625 L 26.828125 -16.875 L 21.109375 -17.03125 L 20.65625 0.53125 L 5.1875 0.140625 L 6.4375 -48 L 35.890625 -47.234375 C 39.335938 -47.148438 42.269531 -46.410156 44.6875 -45.015625 C 47.101562 -43.628906 48.898438 -41.785156 50.078125 -39.484375 C 51.253906 -37.179688 51.804688 -34.703125 51.734375 -32.046875 Z M 35.96875 -31.84375 C 36.007812 -33.101562 35.617188 -34.160156 34.796875 -35.015625 C 33.984375 -35.878906 32.96875 -36.328125 31.75 -36.359375 L 21.625 -36.625 L 21.390625 -27.734375 L 31.515625 -27.46875 C 32.734375 -27.4375 33.769531 -27.84375 34.625 -28.6875 C 35.488281 -29.53125 35.9375 -30.582031 35.96875 -31.84375 Z M 35.96875 -31.84375 "/></g></g></g><path stroke-linecap="butt" transform="matrix(0.749747, 0.0194784, -0.0194784, 0.749747, 298.824741, 183.740585)" fill="none" stroke-linejoin="miter" d="M 67.853877 51.476008 C 67.856673 55.393924 66.792253 58.943599 64.665689 62.119692 C 62.55461 65.290172 59.478821 67.62605 55.437917 69.111706 L 69.724383 95.999741 L 46.576007 96.001973 L 35.182525 72.576431 L 27.523717 72.577423 L 27.522706 96.002018 L 6.906349 96.00099 L 6.90543 31.791853 L 46.210357 31.791892 C 50.810875 31.792203 54.746715 32.679867 58.012669 34.455021 C 61.278353 36.219761 63.731883 38.609971 65.373392 41.630858 C 67.02545 44.656681 67.85575 47.938308 67.853877 51.476008 Z M 46.847844 52.318719 C 46.845805 50.635912 46.283284 49.238592 45.16028 48.126758 C 44.052624 47.004104 42.683359 46.440517 41.057825 46.441068 L 27.527282 46.443514 L 27.52769 58.29125 L 41.058233 58.288804 C 42.683767 58.288253 44.049712 57.721337 45.161141 56.582713 C 46.287783 55.428063 46.844811 54.006867 46.847844 52.318719 Z M 46.847844 52.318719 " stroke="#fffdfd" stroke-width="3.499999" stroke-opacity="1" stroke-miterlimit="4"/><g fill="#fffdfd" fill-opacity="1"><g transform="translate(88.423278, 261.123132)"><g><path d="M 29.125 -49 C 37.425781 -49 43.835938 -46.875 48.359375 -42.625 C 52.890625 -38.382812 55.15625 -32.203125 55.15625 -24.078125 C 55.15625 -15.960938 52.890625 -9.78125 48.359375 -5.53125 C 43.835938 -1.28125 37.425781 0.84375 29.125 0.84375 C 20.8125 0.84375 14.40625 -1.265625 9.90625 -5.484375 C 5.40625 -9.710938 3.15625 -15.910156 3.15625 -24.078125 C 3.15625 -32.242188 5.40625 -38.4375 9.90625 -42.65625 C 14.40625 -46.882812 20.8125 -49 29.125 -49 Z M 29.125 -37.453125 C 25.8125 -37.453125 23.289062 -36.445312 21.5625 -34.4375 C 19.832031 -32.4375 18.96875 -29.726562 18.96875 -26.3125 L 18.96875 -21.84375 C 18.96875 -18.4375 19.832031 -15.726562 21.5625 -13.71875 C 23.289062 -11.707031 25.8125 -10.703125 29.125 -10.703125 C 32.4375 -10.703125 34.96875 -11.707031 36.71875 -13.71875 C 38.46875 -15.726562 39.34375 -18.4375 39.34375 -21.84375 L 39.34375 -26.3125 C 39.34375 -29.726562 38.46875 -32.4375 36.71875 -34.4375 C 34.96875 -36.445312 32.4375 -37.453125 29.125 -37.453125 Z M 29.125 -37.453125 "/></g></g></g><g fill="#ffd8e3" fill-opacity="1"><g transform="translate(49.724632, 267.613988)"><g><path d="M 27.78125 -39.9375 L 32.609375 -4.421875 L 17.28125 -2.34375 L 12.453125 -37.859375 L -3.234375 -35.734375 L -4.890625 -47.9375 L 41.734375 -54.265625 L 43.390625 -42.0625 Z M 27.78125 -39.9375 "/></g></g></g><path stroke-linecap="butt" transform="matrix(0.743185, -0.100879, 0.100879, 0.743185, 36.558682, 193.618888)" fill="none" stroke-linejoin="miter" d="M 43.860421 48.220789 L 43.861125 95.998799 L 23.241111 96.001367 L 23.241108 48.218196 L 2.143036 48.218946 L 2.139521 31.787912 L 64.871001 31.788118 L 64.869355 48.218452 Z M 43.860421 48.220789 " stroke="#fffdfd" stroke-width="3.499999" stroke-opacity="1" stroke-miterlimit="4"/><path stroke-linecap="butt" transform="matrix(0.746069, 0.0766924, -0.0766924, 0.746069, 151.170623, 185.186664)" fill="none" stroke-linejoin="miter" d="M 42.930391 31.788252 C 46.909517 31.787607 50.454833 32.711167 53.570455 34.548036 C 56.680896 36.385438 59.107582 38.905713 60.834968 42.11046 C 62.583611 45.318256 63.455398 48.909393 63.456043 52.888519 L 63.459906 54.097587 C 63.460551 58.076713 62.585364 61.685122 60.839524 64.922281 C 59.104047 68.158375 56.684099 70.69517 53.568785 72.52855 C 50.454004 74.367111 46.909641 75.286448 42.930515 75.287093 L 27.527079 75.28929 L 27.52531 96.002214 L 6.906709 96.001221 L 6.903172 31.789988 Z M 27.525363 60.247073 L 36.02312 60.247918 C 38.196149 60.249679 39.830211 59.694257 40.920657 58.587366 C 42.014686 57.4644 42.564469 55.936631 42.564824 54.004592 L 42.561198 53.256248 C 42.566057 51.266152 42.015573 49.731063 40.925291 48.649381 C 39.828762 47.55787 38.196307 47.008377 36.02381 47.011797 L 27.526054 47.010952 Z M 27.525363 60.247073 " stroke="#fffdfd" stroke-width="3.499999" stroke-opacity="1" stroke-miterlimit="4"/><g fill="#fffdfd" fill-opacity="1"><g transform="translate(197.721745, 259.136306)"><g><path d="M 32.203125 -48.15625 C 35.191406 -48.15625 37.851562 -47.46875 40.1875 -46.09375 C 42.519531 -44.71875 44.335938 -42.828125 45.640625 -40.421875 C 46.941406 -38.015625 47.59375 -35.320312 47.59375 -32.34375 L 47.59375 -31.4375 C 47.59375 -28.445312 46.941406 -25.738281 45.640625 -23.3125 C 44.335938 -20.882812 42.519531 -18.984375 40.1875 -17.609375 C 37.851562 -16.234375 35.191406 -15.546875 32.203125 -15.546875 L 20.65625 -15.546875 L 20.65625 0 L 5.1875 0 L 5.1875 -48.15625 Z M 20.65625 -26.8125 L 27.015625 -26.8125 C 28.648438 -26.8125 29.875 -27.226562 30.6875 -28.0625 C 31.507812 -28.90625 31.921875 -30.050781 31.921875 -31.5 L 31.921875 -32.0625 C 31.921875 -33.550781 31.507812 -34.703125 30.6875 -35.515625 C 29.875 -36.335938 28.648438 -36.75 27.015625 -36.75 L 20.65625 -36.75 Z M 20.65625 -26.8125 "/></g></g></g><g fill="#fffdfd" fill-opacity="1"><g transform="translate(249.329831, 261.1889)"><g><path d="M 1.09375 -48.421875 L 42.578125 -51.9375 L 43.5625 -40.4375 L 17.484375 -38.234375 L 18.046875 -31.59375 L 40.359375 -33.484375 L 41.296875 -22.484375 L 18.984375 -20.59375 L 19.609375 -13.25 L 46.171875 -15.5 L 47.140625 -4 L 5.171875 -0.4375 Z M 1.09375 -48.421875 "/></g></g></g><g fill="#fffdfd" fill-opacity="1"><g transform="translate(109.523241, 128.433028)"><g><path d="M 40.921875 -39.671875 C 48.929688 -37.503906 54.566406 -33.78125 57.828125 -28.5 C 61.085938 -23.21875 61.65625 -16.65625 59.53125 -8.8125 C 57.40625 -0.976562 53.601562 4.394531 48.125 7.3125 C 42.644531 10.226562 35.898438 10.601562 27.890625 8.4375 C 19.867188 6.257812 14.238281 2.546875 11 -2.703125 C 7.757812 -7.960938 7.207031 -14.53125 9.34375 -22.40625 C 11.476562 -30.289062 15.269531 -35.679688 20.71875 -38.578125 C 26.164062 -41.484375 32.898438 -41.847656 40.921875 -39.671875 Z M 37.90625 -28.515625 C 34.707031 -29.390625 32.007812 -29.082031 29.8125 -27.59375 C 27.625 -26.113281 26.085938 -23.722656 25.203125 -20.421875 L 24.03125 -16.109375 C 23.132812 -12.828125 23.253906 -9.988281 24.390625 -7.59375 C 25.535156 -5.207031 27.707031 -3.578125 30.90625 -2.703125 C 34.101562 -1.835938 36.804688 -2.144531 39.015625 -3.625 C 41.234375 -5.113281 42.789062 -7.5 43.6875 -10.78125 L 44.859375 -15.09375 C 45.742188 -18.394531 45.601562 -21.238281 44.4375 -23.625 C 43.28125 -26.019531 41.101562 -27.648438 37.90625 -28.515625 Z M 37.90625 -28.515625 "/></g></g></g><g fill="#ffd8e3" fill-opacity="1"><g transform="translate(245.044464, 143.115194)"><g><path d="M 42.21875 -43.859375 C 42.863281 -40.992188 42.675781 -38.222656 41.65625 -35.546875 C 40.632812 -32.867188 38.773438 -30.648438 36.078125 -28.890625 L 50.984375 -11.609375 L 34.0625 -7.75 L 21.828125 -22.984375 L 16.234375 -21.703125 L 20.140625 -4.578125 L 5.0625 -1.15625 L -5.625 -48.109375 L 23.109375 -54.640625 C 26.460938 -55.410156 29.484375 -55.414062 32.171875 -54.65625 C 34.859375 -53.90625 37.054688 -52.5625 38.765625 -50.625 C 40.472656 -48.695312 41.625 -46.441406 42.21875 -43.859375 Z M 26.984375 -39.75 C 26.710938 -40.976562 26.070312 -41.910156 25.0625 -42.546875 C 24.0625 -43.179688 22.96875 -43.363281 21.78125 -43.09375 L 11.890625 -40.828125 L 13.859375 -32.15625 L 23.75 -34.421875 C 24.9375 -34.691406 25.84375 -35.335938 26.46875 -36.359375 C 27.09375 -37.390625 27.265625 -38.519531 26.984375 -39.75 Z M 26.984375 -39.75 "/></g></g></g><path stroke-linecap="butt" transform="matrix(0.731285, -0.166498, 0.166498, 0.731285, 225.357544, 70.582159)" fill="none" stroke-linejoin="miter" d="M 67.856137 51.478403 C 67.856706 55.393941 66.792018 58.944086 64.664387 62.118682 C 62.553146 65.291668 59.479101 67.625816 55.438327 69.114892 L 69.722534 95.998422 L 46.571666 95.999661 L 35.180592 72.573843 L 27.525196 72.577588 L 27.523329 96.000171 L 6.904483 96.001 L 6.904058 31.789277 L 46.207412 31.790567 C 50.811591 31.791879 54.744563 32.676647 58.014174 34.45734 C 61.278253 36.215407 63.729476 38.611014 65.370154 41.634004 C 67.027224 44.655385 67.855885 47.936851 67.856137 51.478403 Z M 46.848206 52.320088 C 46.847933 50.632074 46.284029 49.237721 45.158806 48.126873 C 44.052287 47.004259 42.684686 46.44183 41.061081 46.440743 L 27.525339 46.441069 L 27.525392 58.288796 L 41.061134 58.28847 C 42.684739 58.289558 44.0537 57.719872 45.161781 56.583337 C 46.284645 55.4288 46.848479 54.008102 46.848206 52.320088 Z M 46.848206 52.320088 " stroke="#fffdfd" stroke-width="3.499999" stroke-opacity="1" stroke-miterlimit="4"/><g clip-path="url(#18b0b76726)"><g clip-path="url(#969a0d918c)"><g clip-path="url(#6f9152ae89)"><path fill="#fffdfd" d="M 148.066406 103.191406 C 147.945312 103.777344 147.871094 104.371094 147.847656 104.972656 C 147.828125 105.570312 147.855469 106.167969 147.933594 106.761719 C 148.015625 107.355469 148.144531 107.941406 148.320312 108.511719 C 148.5 109.085938 148.726562 109.640625 148.996094 110.171875 C 149.269531 110.707031 149.585938 111.214844 149.941406 111.695312 C 150.300781 112.175781 150.695312 112.625 151.128906 113.039062 C 151.566406 113.453125 152.03125 113.828125 152.527344 114.164062 C 153.023438 114.496094 153.546875 114.789062 154.09375 115.035156 C 157.585938 116.566406 161.148438 117.910156 164.785156 119.0625 C 161.167969 117.851562 157.496094 116.839844 153.769531 116.023438 C 153.183594 115.902344 152.589844 115.828125 151.992188 115.808594 C 151.390625 115.785156 150.796875 115.8125 150.203125 115.894531 C 149.605469 115.972656 149.023438 116.101562 148.449219 116.277344 C 147.878906 116.457031 147.324219 116.683594 146.789062 116.953125 C 146.253906 117.226562 145.746094 117.542969 145.265625 117.898438 C 144.785156 118.257812 144.339844 118.652344 143.925781 119.089844 C 143.511719 119.523438 143.136719 119.988281 142.800781 120.484375 C 142.464844 120.984375 142.175781 121.503906 141.929688 122.050781 C 140.394531 125.542969 139.054688 129.109375 137.902344 132.746094 C 139.113281 129.128906 140.125 125.457031 140.941406 121.730469 C 141.0625 121.144531 141.136719 120.550781 141.15625 119.949219 C 141.179688 119.351562 141.148438 118.753906 141.070312 118.160156 C 140.992188 117.566406 140.863281 116.980469 140.683594 116.410156 C 140.507812 115.835938 140.28125 115.28125 140.007812 114.746094 C 139.738281 114.214844 139.421875 113.707031 139.0625 113.222656 C 138.707031 112.742188 138.308594 112.296875 137.875 111.882812 C 137.441406 111.46875 136.976562 111.09375 136.480469 110.757812 C 135.980469 110.425781 135.457031 110.132812 134.910156 109.886719 C 131.421875 108.351562 127.855469 107.011719 124.21875 105.859375 C 127.835938 107.070312 131.507812 108.082031 135.234375 108.898438 C 135.820312 109.019531 136.414062 109.09375 137.015625 109.113281 C 137.613281 109.136719 138.210938 109.109375 138.804688 109.027344 C 139.398438 108.949219 139.984375 108.820312 140.554688 108.640625 C 141.128906 108.464844 141.679688 108.238281 142.214844 107.96875 C 142.75 107.695312 143.257812 107.378906 143.738281 107.023438 C 144.21875 106.664062 144.667969 106.265625 145.082031 105.832031 C 145.496094 105.398438 145.871094 104.933594 146.203125 104.4375 C 146.539062 103.9375 146.832031 103.417969 147.078125 102.871094 C 148.609375 99.378906 149.953125 95.8125 151.101562 92.175781 C 149.894531 95.792969 148.882812 99.464844 148.066406 103.191406 Z M 148.066406 103.191406 " fill-opacity="1" fill-rule="nonzero"/></g></g></g><g clip-path="url(#7648d56c73)"><g clip-path="url(#37c6514106)"><g clip-path="url(#f8304a8685)"><path fill="#fffdfd" d="M 173.816406 92.34375 C 173.664062 93.066406 173.636719 93.792969 173.734375 94.523438 C 173.832031 95.253906 174.046875 95.949219 174.382812 96.605469 C 174.71875 97.261719 175.152344 97.847656 175.6875 98.355469 C 176.21875 98.863281 176.824219 99.269531 177.496094 99.574219 C 179.628906 100.507812 181.804688 101.328125 184.023438 102.03125 C 181.816406 101.292969 179.574219 100.675781 177.300781 100.175781 C 176.578125 100.027344 175.851562 100 175.117188 100.097656 C 174.386719 100.195312 173.695312 100.410156 173.035156 100.746094 C 172.378906 101.078125 171.796875 101.515625 171.285156 102.046875 C 170.777344 102.582031 170.371094 103.183594 170.066406 103.859375 C 169.132812 105.988281 168.3125 108.164062 167.609375 110.386719 C 168.347656 108.175781 168.964844 105.9375 169.460938 103.660156 C 169.613281 102.9375 169.640625 102.210938 169.542969 101.480469 C 169.445312 100.75 169.230469 100.054688 168.894531 99.398438 C 168.5625 98.742188 168.125 98.15625 167.59375 97.648438 C 167.058594 97.140625 166.457031 96.734375 165.785156 96.429688 C 163.652344 95.492188 161.476562 94.675781 159.253906 93.972656 C 161.464844 94.710938 163.703125 95.328125 165.980469 95.828125 C 166.703125 95.976562 167.429688 96.003906 168.160156 95.90625 C 168.890625 95.808594 169.585938 95.59375 170.242188 95.257812 C 170.898438 94.921875 171.484375 94.488281 171.992188 93.957031 C 172.5 93.421875 172.90625 92.820312 173.210938 92.144531 C 174.148438 90.011719 174.964844 87.835938 175.667969 85.617188 C 174.929688 87.824219 174.3125 90.066406 173.816406 92.34375 Z M 173.816406 92.34375 " fill-opacity="1" fill-rule="nonzero"/></g></g></g><g clip-path="url(#e80280c02c)"><path fill="#fffdfd" d="M 352.011719 201.558594 C 352.046875 201.890625 352.136719 202.203125 352.28125 202.503906 C 352.425781 202.800781 352.613281 203.066406 352.847656 203.300781 C 353.082031 203.535156 353.347656 203.726562 353.648438 203.867188 C 353.945312 204.011719 354.261719 204.101562 354.589844 204.136719 C 355.632812 204.242188 356.675781 204.289062 357.722656 204.28125 C 356.675781 204.269531 355.632812 204.320312 354.589844 204.421875 C 354.261719 204.457031 353.945312 204.546875 353.648438 204.691406 C 353.347656 204.835938 353.082031 205.023438 352.847656 205.257812 C 352.613281 205.492188 352.425781 205.757812 352.28125 206.058594 C 352.136719 206.355469 352.046875 206.671875 352.011719 207 C 351.910156 208.042969 351.863281 209.085938 351.871094 210.132812 C 351.878906 209.085938 351.832031 208.042969 351.726562 207 C 351.691406 206.671875 351.601562 206.355469 351.457031 206.058594 C 351.316406 205.757812 351.125 205.492188 350.890625 205.257812 C 350.65625 205.023438 350.390625 204.835938 350.09375 204.691406 C 349.792969 204.546875 349.480469 204.457031 349.148438 204.421875 C 348.109375 204.320312 347.066406 204.269531 346.019531 204.28125 C 347.066406 204.289062 348.109375 204.242188 349.148438 204.136719 C 349.480469 204.101562 349.792969 204.011719 350.09375 203.867188 C 350.390625 203.726562 350.65625 203.535156 350.890625 203.300781 C 351.125 203.066406 351.316406 202.800781 351.457031 202.503906 C 351.601562 202.203125 351.691406 201.890625 351.726562 201.558594 C 351.832031 200.519531 351.878906 199.476562 351.871094 198.429688 C 351.863281 199.476562 351.910156 200.519531 352.011719 201.558594 Z M 352.011719 201.558594 " fill-opacity="1" fill-rule="nonzero"/></g><g clip-path="url(#d4bcd207e5)"><path fill="#fffdfd" d="M 357.808594 196.542969 C 357.855469 196.957031 358.023438 197.3125 358.320312 197.609375 C 358.613281 197.902344 358.96875 198.074219 359.382812 198.117188 C 360.019531 198.179688 360.65625 198.210938 361.292969 198.203125 C 360.65625 198.199219 360.019531 198.230469 359.382812 198.292969 C 358.96875 198.335938 358.613281 198.507812 358.320312 198.800781 C 358.023438 199.097656 357.855469 199.453125 357.808594 199.867188 C 357.746094 200.5 357.714844 201.140625 357.722656 201.777344 C 357.726562 201.140625 357.699219 200.5 357.632812 199.867188 C 357.589844 199.453125 357.417969 199.097656 357.125 198.800781 C 356.828125 198.507812 356.476562 198.335938 356.058594 198.292969 C 355.425781 198.230469 354.789062 198.199219 354.148438 198.203125 C 354.789062 198.210938 355.425781 198.179688 356.058594 198.117188 C 356.476562 198.074219 356.828125 197.902344 357.125 197.609375 C 357.417969 197.3125 357.589844 196.957031 357.632812 196.542969 C 357.699219 195.910156 357.726562 195.269531 357.722656 194.632812 C 357.714844 195.269531 357.746094 195.910156 357.808594 196.542969 Z M 357.808594 196.542969 " fill-opacity="1" fill-rule="nonzero"/></g><g clip-path="url(#92005effce)"><path fill="#fffdfd" d="M 346.875 205.363281 C 346.949219 206.03125 347.128906 206.664062 347.417969 207.269531 C 347.710938 207.871094 348.089844 208.410156 348.5625 208.882812 C 349.039062 209.359375 349.574219 209.738281 350.179688 210.027344 C 350.785156 210.316406 351.417969 210.5 352.082031 210.570312 C 354.1875 210.78125 356.292969 210.878906 358.40625 210.859375 C 356.292969 210.84375 354.1875 210.9375 352.082031 211.148438 C 351.417969 211.222656 350.78125 211.402344 350.179688 211.691406 C 349.574219 211.980469 349.039062 212.363281 348.5625 212.835938 C 348.089844 213.308594 347.710938 213.847656 347.417969 214.453125 C 347.128906 215.054688 346.949219 215.691406 346.875 216.355469 C 346.667969 218.457031 346.570312 220.566406 346.589844 222.679688 C 346.605469 220.566406 346.507812 218.457031 346.300781 216.355469 C 346.226562 215.691406 346.046875 215.054688 345.757812 214.453125 C 345.46875 213.847656 345.085938 213.308594 344.613281 212.835938 C 344.140625 212.363281 343.601562 211.980469 342.996094 211.691406 C 342.394531 211.402344 341.757812 211.222656 341.09375 211.148438 C 338.992188 210.9375 336.882812 210.84375 334.769531 210.859375 C 336.882812 210.878906 338.992188 210.78125 341.09375 210.570312 C 341.757812 210.5 342.394531 210.316406 342.996094 210.027344 C 343.601562 209.738281 344.140625 209.359375 344.613281 208.882812 C 345.085938 208.410156 345.46875 207.871094 345.757812 207.269531 C 346.046875 206.664062 346.226562 206.03125 346.300781 205.363281 C 346.507812 203.261719 346.605469 201.152344 346.589844 199.039062 C 346.570312 201.152344 346.667969 203.261719 346.875 205.363281 Z M 346.875 205.363281 " fill-opacity="1" fill-rule="nonzero"/></g><g clip-path="url(#11636a10e5)"><path fill="#fffdfd" d="M 358.585938 195.234375 C 358.628906 195.640625 358.738281 196.027344 358.914062 196.398438 C 359.09375 196.765625 359.324219 197.09375 359.613281 197.382812 C 359.902344 197.671875 360.230469 197.90625 360.601562 198.082031 C 360.96875 198.257812 361.355469 198.367188 361.761719 198.414062 C 363.046875 198.539062 364.335938 198.601562 365.625 198.589844 C 364.335938 198.578125 363.046875 198.636719 361.761719 198.765625 C 361.355469 198.808594 360.96875 198.921875 360.601562 199.097656 C 360.230469 199.273438 359.902344 199.507812 359.613281 199.796875 C 359.324219 200.085938 359.09375 200.414062 358.914062 200.78125 C 358.738281 201.148438 358.628906 201.539062 358.585938 201.945312 C 358.457031 203.226562 358.398438 204.515625 358.40625 205.804688 C 358.417969 204.515625 358.359375 203.226562 358.230469 201.945312 C 358.1875 201.539062 358.078125 201.152344 357.898438 200.78125 C 357.722656 200.414062 357.492188 200.085938 357.203125 199.796875 C 356.914062 199.507812 356.582031 199.273438 356.214844 199.097656 C 355.847656 198.921875 355.460938 198.808594 355.054688 198.765625 C 353.769531 198.636719 352.480469 198.578125 351.191406 198.589844 C 352.480469 198.601562 353.769531 198.539062 355.054688 198.414062 C 355.460938 198.367188 355.847656 198.257812 356.214844 198.082031 C 356.582031 197.90625 356.914062 197.671875 357.203125 197.382812 C 357.492188 197.09375 357.722656 196.765625 357.898438 196.398438 C 358.078125 196.027344 358.1875 195.640625 358.230469 195.234375 C 358.359375 193.949219 358.417969 192.664062 358.40625 191.371094 C 358.398438 192.664062 358.457031 193.949219 358.585938 195.234375 Z M 358.585938 195.234375 " fill-opacity="1" fill-rule="nonzero"/></g></svg>