<svg xmlns="http://www.w3.org/2000/svg" xmlns:xlink="http://www.w3.org/1999/xlink" width="500" zoomAndPan="magnify" viewBox="0 0 375 374.999991" height="500" preserveAspectRatio="xMidYMid meet" version="1.0"><defs><g/><clipPath id="75312b45cc"><path d="M 124 105 L 165 105 L 165 146 L 124 146 Z M 124 105 " clip-rule="nonzero"/></clipPath><clipPath id="6e805d4c1c"><path d="M 129.71875 102.152344 L 168.230469 114.683594 L 156.164062 151.769531 L 117.652344 139.238281 Z M 129.71875 102.152344 " clip-rule="nonzero"/></clipPath><clipPath id="51af13b2ce"><path d="M 135.128906 85.523438 L 187.90625 102.695312 L 170.269531 156.898438 L 117.492188 139.726562 Z M 135.128906 85.523438 " clip-rule="nonzero"/></clipPath><clipPath id="7528548e7a"><path d="M 159 102 L 169 102 L 169 124 L 159 124 Z M 159 102 " clip-rule="nonzero"/></clipPath><clipPath id="a4593132fe"><path d="M 129.71875 102.152344 L 168.230469 114.683594 L 156.164062 151.769531 L 117.652344 139.238281 Z M 129.71875 102.152344 " clip-rule="nonzero"/></clipPath><clipPath id="e124206e5c"><path d="M 135.128906 85.523438 L 187.90625 102.695312 L 170.269531 156.898438 L 117.492188 139.726562 Z M 135.128906 85.523438 " clip-rule="nonzero"/></clipPath><clipPath id="7fe57dd84e"><path d="M 346.019531 212.707031 L 357.269531 212.707031 L 357.269531 223.207031 L 346.019531 223.207031 Z M 346.019531 212.707031 " clip-rule="nonzero"/></clipPath><clipPath id="e7ba778c5c"><path d="M 354 212.707031 L 357.269531 212.707031 L 357.269531 215 L 354 215 Z M 354 212.707031 " clip-rule="nonzero"/></clipPath><clipPath id="041c9a873a"><path d="M 334.769531 214.425781 L 357.269531 214.425781 L 357.269531 236 L 334.769531 236 Z M 334.769531 214.425781 " clip-rule="nonzero"/></clipPath><clipPath id="906566ca95"><path d="M 351 214.425781 L 357.269531 214.425781 L 357.269531 219 L 351 219 Z M 351 214.425781 " clip-rule="nonzero"/></clipPath></defs><g fill="#fffdfd" fill-opacity="0.4"><g transform="translate(62.620321, 207.102848)"><g><path d="M 46.234375 5.375 L 48.234375 -11.875 C 48.484375 -14 48.820312 -16.175781 49.25 -18.40625 C 49.675781 -20.644531 50.066406 -22.515625 50.421875 -24.015625 C 50.785156 -25.523438 51.019531 -26.488281 51.125 -26.90625 L 50.84375 -26.9375 L 38.25 4.4375 L 26.21875 3.046875 L 21.078125 -30.3125 L 20.796875 -30.34375 C 20.796875 -29.925781 20.804688 -28.953125 20.828125 -27.421875 C 20.859375 -25.890625 20.835938 -23.988281 20.765625 -21.71875 C 20.691406 -19.445312 20.53125 -17.25 20.28125 -15.125 L 18.28125 2.125 L 4.171875 0.484375 L 9.734375 -47.34375 L 31.4375 -44.828125 L 35.4375 -16.390625 L 35.71875 -16.359375 L 46.109375 -43.125 L 67.03125 -40.6875 L 61.46875 7.140625 Z M 46.234375 5.375 "/></g></g></g><g fill="#fdd4de" fill-opacity="1"><g transform="translate(59.904303, 203.673006)"><g><path d="M 46.234375 5.375 L 48.234375 -11.875 C 48.484375 -14 48.820312 -16.175781 49.25 -18.40625 C 49.675781 -20.644531 50.066406 -22.515625 50.421875 -24.015625 C 50.785156 -25.523438 51.019531 -26.488281 51.125 -26.90625 L 50.84375 -26.9375 L 38.25 4.4375 L 26.21875 3.046875 L 21.078125 -30.3125 L 20.796875 -30.34375 C 20.796875 -29.925781 20.804688 -28.953125 20.828125 -27.421875 C 20.859375 -25.890625 20.835938 -23.988281 20.765625 -21.71875 C 20.691406 -19.445312 20.53125 -17.25 20.28125 -15.125 L 18.28125 2.125 L 4.171875 0.484375 L 9.734375 -47.34375 L 31.4375 -44.828125 L 35.4375 -16.390625 L 35.71875 -16.359375 L 46.109375 -43.125 L 67.03125 -40.6875 L 61.46875 7.140625 Z M 46.234375 5.375 "/></g></g></g><g fill="#f47392" fill-opacity="1"><g transform="translate(133.041661, 210.334673)"><g><path d="M 37.453125 0 L 35.421875 -6.796875 L 18.546875 -6.796875 L 16.515625 0 L 0.703125 0 L 18.265625 -48.15625 L 36.265625 -48.15625 L 53.828125 0 Z M 21.765625 -17.5625 L 32.203125 -17.5625 L 27.15625 -34.71875 L 26.875 -34.71875 Z M 21.765625 -17.5625 "/></g></g></g><g fill="#fda5bd" fill-opacity="1"><g transform="translate(184.995368, 205.888595)"><g><path d="M 37.34375 -43.25 C 41.894531 -42.457031 45.863281 -41.054688 49.25 -39.046875 C 52.644531 -37.035156 55.179688 -34.5 56.859375 -31.4375 C 58.535156 -28.375 59.035156 -24.914062 58.359375 -21.0625 L 43.796875 -23.59375 C 44.140625 -25.5625 43.546875 -27.304688 42.015625 -28.828125 C 40.484375 -30.359375 38.476562 -31.335938 36 -31.765625 C 32.40625 -32.390625 29.519531 -31.90625 27.34375 -30.3125 C 25.175781 -28.71875 23.789062 -26.171875 23.1875 -22.671875 L 22.421875 -18.265625 C 21.816406 -14.765625 22.265625 -11.898438 23.765625 -9.671875 C 25.273438 -7.453125 27.828125 -6.03125 31.421875 -5.40625 C 33.898438 -4.976562 36.113281 -5.203125 38.0625 -6.078125 C 40.007812 -6.953125 41.144531 -8.304688 41.46875 -10.140625 L 30.703125 -12 L 32.375 -21.65625 L 57.703125 -17.265625 L 53.109375 9.21875 L 45.25 7.859375 L 44.53125 2.890625 C 39.570312 5.828125 33.597656 6.6875 26.609375 5.46875 C 18.753906 4.101562 13.207031 1.023438 9.96875 -3.765625 C 6.726562 -8.566406 5.816406 -15.035156 7.234375 -23.171875 C 8.628906 -31.222656 11.925781 -36.941406 17.125 -40.328125 C 22.320312 -43.710938 29.0625 -44.6875 37.34375 -43.25 Z M 37.34375 -43.25 "/></g></g></g><path stroke-linecap="butt" transform="matrix(0.73895, 0.128271, -0.128271, 0.73895, 194.790474, 131.372336)" fill="none" stroke-linejoin="miter" d="M 39.191567 30.674517 C 45.360074 30.671567 50.893561 31.608785 55.800511 33.474125 C 60.724637 35.347056 64.628022 38.10024 67.513337 41.749073 C 70.416507 45.378948 71.866817 49.805499 71.865156 55.033859 L 52.178768 55.030954 C 52.179617 52.355979 50.996308 50.198445 48.623708 48.559241 C 46.253568 46.903752 43.393235 46.07871 40.035797 46.074744 C 35.188492 46.075659 31.522094 47.367585 29.031472 49.951414 C 26.534827 52.531001 25.293004 56.187894 25.293066 60.908478 L 25.293847 66.881771 C 25.293909 71.602355 26.536088 75.256243 29.030647 77.841655 C 31.519182 80.422826 35.190114 81.715074 40.032288 81.71505 C 43.393967 81.712994 46.254589 80.925688 48.623525 79.34622 C 50.994921 77.750465 52.179117 75.710587 52.177895 73.236848 L 37.619694 73.237134 L 37.617377 60.159427 L 71.866207 60.156024 L 71.866648 96.001807 L 61.224978 95.998874 L 59.175141 89.641197 C 53.326986 94.626306 45.671616 97.118139 36.209032 97.116695 C 25.573383 97.118003 17.573436 94.335854 12.215212 88.774487 C 6.86547 83.201076 4.193799 74.905574 4.190825 63.894893 C 4.192945 53.004911 7.22081 44.745576 13.281336 39.12626 C 19.360605 33.493118 27.995045 30.672746 39.191567 30.674517 Z M 39.191567 30.674517 " stroke="#fdd4de" stroke-width="3.499999" stroke-opacity="1" stroke-miterlimit="4"/><g fill="#f47392" fill-opacity="1"><g transform="translate(243.390413, 206.801646)"><g><path d="M 5.875 0 L 5.875 -48.15625 L 21.34375 -48.15625 L 21.34375 0 Z M 5.875 0 "/></g></g></g><g fill="#fda5bd" fill-opacity="1"><g transform="translate(273.215931, 210.146292)"><g><path d="M 20.140625 -52.796875 C 27.179688 -53.910156 33.035156 -53.03125 37.703125 -50.15625 C 42.367188 -47.28125 45.21875 -42.566406 46.25 -36.015625 L 31.65625 -33.71875 C 31.21875 -36.476562 30.144531 -38.546875 28.4375 -39.921875 C 26.726562 -41.304688 24.535156 -41.789062 21.859375 -41.375 C 18.773438 -40.882812 16.660156 -39.554688 15.515625 -37.390625 C 14.367188 -35.222656 14.070312 -32.410156 14.625 -28.953125 L 15.3125 -24.546875 C 15.851562 -21.128906 17.003906 -18.554688 18.765625 -16.828125 C 20.535156 -15.097656 22.921875 -14.472656 25.921875 -14.953125 C 28.859375 -15.410156 30.96875 -16.519531 32.25 -18.28125 C 33.539062 -20.050781 33.96875 -22.320312 33.53125 -25.09375 L 47.640625 -27.3125 C 48.660156 -20.800781 47.445312 -15.503906 44 -11.421875 C 40.5625 -7.335938 35.203125 -4.722656 27.921875 -3.578125 C 19.804688 -2.285156 13.335938 -3.382812 8.515625 -6.875 C 3.691406 -10.375 0.640625 -16.175781 -0.640625 -24.28125 C -1.921875 -32.394531 -0.804688 -38.851562 2.703125 -43.65625 C 6.210938 -48.457031 12.023438 -51.503906 20.140625 -52.796875 Z M 20.140625 -52.796875 "/></g></g></g><g fill="#f1718e" fill-opacity="0.4"><g transform="translate(69.450593, 150.91398)"><g><path d="M 35.0625 0 L 19.59375 0 L 19.59375 -18.6875 L 0.484375 -48.15625 L 18.265625 -48.15625 L 27.515625 -32.125 L 27.796875 -32.125 L 37.03125 -48.15625 L 53.90625 -48.15625 L 35.0625 -18.6875 Z M 35.0625 0 "/></g></g></g><g fill="#f1718e" fill-opacity="1"><g transform="translate(66.357005, 147.820389)"><g><path d="M 35.0625 0 L 19.59375 0 L 19.59375 -18.6875 L 0.484375 -48.15625 L 18.265625 -48.15625 L 27.515625 -32.125 L 27.796875 -32.125 L 37.03125 -48.15625 L 53.90625 -48.15625 L 35.0625 -18.6875 Z M 35.0625 0 "/></g></g></g><path stroke-linecap="butt" transform="matrix(0.75, 0, 0, 0.75, 174.616603, 81.594251)" fill="none" stroke-linejoin="miter" d="M 70.839325 70.139961 C 70.839325 78.916003 68.068492 85.608712 62.521616 90.212879 C 56.995574 94.817046 49.125782 97.113921 38.917448 97.113921 C 28.709114 97.113921 20.818488 94.817046 15.245571 90.212879 C 9.683071 85.608712 6.901821 78.916003 6.901821 70.139961 L 6.901821 31.791 L 27.526822 31.791 L 27.526822 69.863919 C 27.526822 73.478503 28.490364 76.358711 30.417447 78.499337 C 32.349739 80.639962 35.151823 81.712878 38.828906 81.712878 C 42.500782 81.712878 45.31849 80.629545 47.282032 78.452462 C 49.240365 76.280586 50.219532 73.421211 50.219532 69.863919 L 50.219532 31.791 L 70.839325 31.791 Z M 70.839325 70.139961 " stroke="#fdd4de" stroke-width="3.499999" stroke-opacity="1" stroke-miterlimit="4"/><g fill="#ffd8e3" fill-opacity="1"><g transform="translate(299.967033, 272.081542)"><g><path d="M 51.734375 -32.046875 C 51.660156 -29.109375 50.796875 -26.472656 49.140625 -24.140625 C 47.492188 -21.804688 45.144531 -20.117188 42.09375 -19.078125 L 52.28125 1.359375 L 34.921875 0.90625 L 26.828125 -16.875 L 21.109375 -17.03125 L 20.65625 0.53125 L 5.1875 0.140625 L 6.4375 -48 L 35.890625 -47.234375 C 39.335938 -47.148438 42.269531 -46.410156 44.6875 -45.015625 C 47.101562 -43.628906 48.898438 -41.785156 50.078125 -39.484375 C 51.253906 -37.179688 51.804688 -34.703125 51.734375 -32.046875 Z M 35.96875 -31.84375 C 36.007812 -33.101562 35.617188 -34.160156 34.796875 -35.015625 C 33.984375 -35.878906 32.96875 -36.328125 31.75 -36.359375 L 21.625 -36.625 L 21.390625 -27.734375 L 31.515625 -27.46875 C 32.734375 -27.4375 33.769531 -27.84375 34.625 -28.6875 C 35.488281 -29.53125 35.9375 -30.582031 35.96875 -31.84375 Z M 35.96875 -31.84375 "/></g></g></g><path stroke-linecap="butt" transform="matrix(0.749747, 0.0194784, -0.0194784, 0.749747, 298.824741, 196.932937)" fill="none" stroke-linejoin="miter" d="M 67.853845 51.474747 C 67.856775 55.397869 66.79222 58.942338 64.665656 62.11843 C 62.554712 65.294117 59.478788 67.624788 55.437884 69.110445 L 69.72435 95.998479 L 46.575974 96.000712 L 35.182492 72.575169 L 27.523684 72.576161 L 27.522673 96.000756 L 6.906316 95.999728 L 6.905397 31.790592 L 46.210324 31.79063 C 50.810842 31.790941 54.746682 32.678606 58.012637 34.453759 C 61.278321 36.218499 63.73185 38.608709 65.373495 41.634803 C 67.025418 44.65542 67.855717 47.937046 67.853845 51.474747 Z M 46.847811 52.317457 C 46.845773 50.634651 46.283251 49.23733 45.160247 48.125496 C 44.052591 47.002843 42.683326 46.439256 41.057792 46.439806 L 27.527249 46.442253 L 27.527657 58.289989 L 41.0582 58.287542 C 42.683869 58.292198 44.049679 57.720075 45.161108 56.581451 C 46.28775 55.426801 46.844778 54.005605 46.847811 52.317457 Z M 46.847811 52.317457 " stroke="#fda5bd" stroke-width="3.499999" stroke-opacity="1" stroke-miterlimit="4"/><g fill="#fda5bd" fill-opacity="1"><g transform="translate(88.423278, 274.31547)"><g><path d="M 29.125 -49 C 37.425781 -49 43.835938 -46.875 48.359375 -42.625 C 52.890625 -38.382812 55.15625 -32.203125 55.15625 -24.078125 C 55.15625 -15.960938 52.890625 -9.78125 48.359375 -5.53125 C 43.835938 -1.28125 37.425781 0.84375 29.125 0.84375 C 20.8125 0.84375 14.40625 -1.265625 9.90625 -5.484375 C 5.40625 -9.710938 3.15625 -15.910156 3.15625 -24.078125 C 3.15625 -32.242188 5.40625 -38.4375 9.90625 -42.65625 C 14.40625 -46.882812 20.8125 -49 29.125 -49 Z M 29.125 -37.453125 C 25.8125 -37.453125 23.289062 -36.445312 21.5625 -34.4375 C 19.832031 -32.4375 18.96875 -29.726562 18.96875 -26.3125 L 18.96875 -21.84375 C 18.96875 -18.4375 19.832031 -15.726562 21.5625 -13.71875 C 23.289062 -11.707031 25.8125 -10.703125 29.125 -10.703125 C 32.4375 -10.703125 34.96875 -11.707031 36.71875 -13.71875 C 38.46875 -15.726562 39.34375 -18.4375 39.34375 -21.84375 L 39.34375 -26.3125 C 39.34375 -29.726562 38.46875 -32.4375 36.71875 -34.4375 C 34.96875 -36.445312 32.4375 -37.453125 29.125 -37.453125 Z M 29.125 -37.453125 "/></g></g></g><g fill="#fda5bd" fill-opacity="1"><g transform="translate(49.724632, 280.806298)"><g><path d="M 27.78125 -39.9375 L 32.609375 -4.421875 L 17.28125 -2.34375 L 12.453125 -37.859375 L -3.234375 -35.734375 L -4.890625 -47.9375 L 41.734375 -54.265625 L 43.390625 -42.0625 Z M 27.78125 -39.9375 "/></g></g></g><path stroke-linecap="butt" transform="matrix(0.743185, -0.100879, 0.100879, 0.743185, 36.558682, 206.811198)" fill="none" stroke-linejoin="miter" d="M 43.860583 48.219596 L 43.861287 95.997605 L 23.241273 96.000173 L 23.24127 48.217002 L 2.143198 48.217752 L 2.138982 31.791879 L 64.870462 31.792086 L 64.869517 48.217258 Z M 43.860583 48.219596 " stroke="#fdd4de" stroke-width="3.499999" stroke-opacity="1" stroke-miterlimit="4"/><path stroke-linecap="butt" transform="matrix(0.746069, 0.0766924, -0.0766924, 0.746069, 151.170623, 198.379031)" fill="none" stroke-linejoin="miter" d="M 42.930792 31.792159 C 46.909918 31.791514 50.454702 32.709892 53.570324 34.546762 C 56.680765 36.384164 59.107451 38.904439 60.835369 42.114366 C 62.58348 45.316982 63.455267 48.908119 63.455912 52.887245 L 63.459775 54.096313 C 63.46042 58.075439 62.585233 61.683847 60.839393 64.921007 C 59.103916 68.157101 56.683968 70.693896 53.569187 72.532457 C 50.454406 74.371018 46.90951 75.285174 42.930384 75.285819 L 27.526948 75.288016 L 27.525178 96.00094 L 6.906578 95.999946 L 6.903041 31.788714 Z M 27.525765 60.250979 L 36.023521 60.251824 C 38.196018 60.248404 39.83008 59.692983 40.920526 58.586092 C 42.014555 57.463125 42.564338 55.935356 42.565225 54.008498 L 42.561067 53.254973 C 42.565926 51.264878 42.015442 49.729788 40.925692 48.653288 C 39.828631 47.556595 38.196708 47.012284 36.023679 47.010522 L 27.525923 47.009677 Z M 27.525765 60.250979 " stroke="#f47392" stroke-width="3.499999" stroke-opacity="1" stroke-miterlimit="4"/><g fill="#fdd4de" fill-opacity="1"><g transform="translate(197.721745, 272.328673)"><g><path d="M 32.203125 -48.15625 C 35.191406 -48.15625 37.851562 -47.46875 40.1875 -46.09375 C 42.519531 -44.71875 44.335938 -42.828125 45.640625 -40.421875 C 46.941406 -38.015625 47.59375 -35.320312 47.59375 -32.34375 L 47.59375 -31.4375 C 47.59375 -28.445312 46.941406 -25.738281 45.640625 -23.3125 C 44.335938 -20.882812 42.519531 -18.984375 40.1875 -17.609375 C 37.851562 -16.234375 35.191406 -15.546875 32.203125 -15.546875 L 20.65625 -15.546875 L 20.65625 0 L 5.1875 0 L 5.1875 -48.15625 Z M 20.65625 -26.8125 L 27.015625 -26.8125 C 28.648438 -26.8125 29.875 -27.226562 30.6875 -28.0625 C 31.507812 -28.90625 31.921875 -30.050781 31.921875 -31.5 L 31.921875 -32.0625 C 31.921875 -33.550781 31.507812 -34.703125 30.6875 -35.515625 C 29.875 -36.335938 28.648438 -36.75 27.015625 -36.75 L 20.65625 -36.75 Z M 20.65625 -26.8125 "/></g></g></g><g fill="#f1718e" fill-opacity="1"><g transform="translate(249.329831, 274.381238)"><g><path d="M 1.09375 -48.421875 L 42.578125 -51.9375 L 43.5625 -40.4375 L 17.484375 -38.234375 L 18.046875 -31.59375 L 40.359375 -33.484375 L 41.296875 -22.484375 L 18.984375 -20.59375 L 19.609375 -13.25 L 46.171875 -15.5 L 47.140625 -4 L 5.171875 -0.4375 Z M 1.09375 -48.421875 "/></g></g></g><g fill="#fda5bd" fill-opacity="1"><g transform="translate(109.523241, 141.625373)"><g><path d="M 40.921875 -39.671875 C 48.929688 -37.503906 54.566406 -33.78125 57.828125 -28.5 C 61.085938 -23.21875 61.65625 -16.65625 59.53125 -8.8125 C 57.40625 -0.976562 53.601562 4.394531 48.125 7.3125 C 42.644531 10.226562 35.898438 10.601562 27.890625 8.4375 C 19.867188 6.257812 14.238281 2.546875 11 -2.703125 C 7.757812 -7.960938 7.207031 -14.53125 9.34375 -22.40625 C 11.476562 -30.289062 15.269531 -35.679688 20.71875 -38.578125 C 26.164062 -41.484375 32.898438 -41.847656 40.921875 -39.671875 Z M 37.90625 -28.515625 C 34.707031 -29.390625 32.007812 -29.082031 29.8125 -27.59375 C 27.625 -26.113281 26.085938 -23.722656 25.203125 -20.421875 L 24.03125 -16.109375 C 23.132812 -12.828125 23.253906 -9.988281 24.390625 -7.59375 C 25.535156 -5.207031 27.707031 -3.578125 30.90625 -2.703125 C 34.101562 -1.835938 36.804688 -2.144531 39.015625 -3.625 C 41.234375 -5.113281 42.789062 -7.5 43.6875 -10.78125 L 44.859375 -15.09375 C 45.742188 -18.394531 45.601562 -21.238281 44.4375 -23.625 C 43.28125 -26.019531 41.101562 -27.648438 37.90625 -28.515625 Z M 37.90625 -28.515625 "/></g></g></g><g fill="#ffd8e3" fill-opacity="1"><g transform="translate(245.044464, 156.307532)"><g><path d="M 42.21875 -43.859375 C 42.863281 -40.992188 42.675781 -38.222656 41.65625 -35.546875 C 40.632812 -32.867188 38.773438 -30.648438 36.078125 -28.890625 L 50.984375 -11.609375 L 34.0625 -7.75 L 21.828125 -22.984375 L 16.234375 -21.703125 L 20.140625 -4.578125 L 5.0625 -1.15625 L -5.625 -48.109375 L 23.109375 -54.640625 C 26.460938 -55.410156 29.484375 -55.414062 32.171875 -54.65625 C 34.859375 -53.90625 37.054688 -52.5625 38.765625 -50.625 C 40.472656 -48.695312 41.625 -46.441406 42.21875 -43.859375 Z M 26.984375 -39.75 C 26.710938 -40.976562 26.070312 -41.910156 25.0625 -42.546875 C 24.0625 -43.179688 22.96875 -43.363281 21.78125 -43.09375 L 11.890625 -40.828125 L 13.859375 -32.15625 L 23.75 -34.421875 C 24.9375 -34.691406 25.84375 -35.335938 26.46875 -36.359375 C 27.09375 -37.390625 27.265625 -38.519531 26.984375 -39.75 Z M 26.984375 -39.75 "/></g></g></g><path stroke-linecap="butt" transform="matrix(0.731285, -0.166498, 0.166498, 0.731285, 225.357544, 83.774495)" fill="none" stroke-linejoin="miter" d="M 67.856412 51.477194 C 67.855825 55.397811 66.792294 58.942877 64.664662 62.117473 C 62.553421 65.290459 59.479376 67.624607 55.438603 69.113684 L 69.722809 95.997214 L 46.571941 95.998452 L 35.179711 72.577712 L 27.525472 72.576379 L 27.523604 95.998963 L 6.904758 95.999791 L 6.904333 31.788068 L 46.207687 31.789359 C 50.811866 31.790671 54.743682 32.680517 58.014449 34.456131 C 61.277372 36.219276 63.729751 38.609805 65.370429 41.632795 C 67.027499 44.654176 67.85616 47.935642 67.856412 51.477194 Z M 46.848481 52.318879 C 46.847052 50.635943 46.284304 49.236512 45.159081 48.125665 C 44.052563 47.00305 42.684961 46.440622 41.061356 46.439534 L 27.525614 46.43986 L 27.525667 58.287588 L 41.060252 58.29234 C 42.685014 58.288349 44.053975 57.718664 45.162057 56.582128 C 46.28492 55.427591 46.848755 54.006894 46.848481 52.318879 Z M 46.848481 52.318879 " stroke="#fda5bd" stroke-width="3.499999" stroke-opacity="1" stroke-miterlimit="4"/><g clip-path="url(#75312b45cc)"><g clip-path="url(#6e805d4c1c)"><g clip-path="url(#51af13b2ce)"><path fill="#f1dd29" d="M 148.066406 116.382812 C 147.945312 116.972656 147.871094 117.5625 147.847656 118.164062 C 147.828125 118.761719 147.855469 119.359375 147.933594 119.953125 C 148.015625 120.546875 148.144531 121.132812 148.320312 121.703125 C 148.5 122.277344 148.726562 122.832031 148.996094 123.367188 C 149.269531 123.898438 149.585938 124.40625 149.941406 124.890625 C 150.300781 125.371094 150.695312 125.816406 151.128906 126.230469 C 151.566406 126.644531 152.03125 127.019531 152.527344 127.355469 C 153.023438 127.691406 153.546875 127.980469 154.09375 128.226562 C 157.585938 129.761719 161.148438 131.101562 164.785156 132.253906 C 161.167969 131.042969 157.496094 130.03125 153.769531 129.214844 C 153.183594 129.09375 152.589844 129.019531 151.992188 129 C 151.390625 128.976562 150.796875 129.007812 150.203125 129.085938 C 149.605469 129.164062 149.023438 129.292969 148.449219 129.472656 C 147.878906 129.648438 147.324219 129.875 146.789062 130.148438 C 146.253906 130.417969 145.746094 130.734375 145.265625 131.09375 C 144.785156 131.449219 144.339844 131.847656 143.925781 132.28125 C 143.511719 132.714844 143.136719 133.179688 142.800781 133.675781 C 142.464844 134.175781 142.175781 134.699219 141.929688 135.242188 C 140.394531 138.734375 139.054688 142.300781 137.902344 145.9375 C 139.113281 142.320312 140.125 138.648438 140.941406 134.921875 C 141.0625 134.335938 141.136719 133.742188 141.15625 133.140625 C 141.179688 132.542969 141.148438 131.945312 141.070312 131.351562 C 140.992188 130.757812 140.863281 130.171875 140.683594 129.601562 C 140.507812 129.027344 140.28125 128.476562 140.007812 127.941406 C 139.738281 127.40625 139.421875 126.898438 139.0625 126.417969 C 138.707031 125.9375 138.308594 125.488281 137.875 125.074219 C 137.441406 124.660156 136.976562 124.285156 136.480469 123.953125 C 135.980469 123.617188 135.457031 123.324219 134.910156 123.078125 C 131.421875 121.546875 127.855469 120.203125 124.21875 119.054688 C 127.835938 120.261719 131.507812 121.273438 135.234375 122.089844 C 135.820312 122.210938 136.414062 122.285156 137.015625 122.304688 C 137.613281 122.328125 138.210938 122.300781 138.804688 122.222656 C 139.398438 122.140625 139.984375 122.011719 140.554688 121.835938 C 141.128906 121.65625 141.679688 121.429688 142.214844 121.160156 C 142.75 120.886719 143.257812 120.570312 143.738281 120.214844 C 144.21875 119.855469 144.667969 119.460938 145.082031 119.027344 C 145.496094 118.589844 145.871094 118.125 146.203125 117.628906 C 146.539062 117.128906 146.832031 116.609375 147.078125 116.0625 C 148.609375 112.570312 149.953125 109.003906 151.101562 105.367188 C 149.894531 108.984375 148.882812 112.65625 148.066406 116.382812 Z M 148.066406 116.382812 " fill-opacity="1" fill-rule="nonzero"/></g></g></g><g clip-path="url(#7528548e7a)"><g clip-path="url(#a4593132fe)"><g clip-path="url(#e124206e5c)"><path fill="#f1dd29" d="M 173.816406 105.535156 C 173.664062 106.257812 173.636719 106.984375 173.734375 107.714844 C 173.832031 108.445312 174.046875 109.140625 174.382812 109.796875 C 174.71875 110.453125 175.152344 111.039062 175.6875 111.546875 C 176.21875 112.054688 176.824219 112.460938 177.496094 112.765625 C 179.628906 113.703125 181.804688 114.523438 184.023438 115.222656 C 181.816406 114.484375 179.574219 113.867188 177.300781 113.371094 C 176.578125 113.21875 175.851562 113.191406 175.117188 113.289062 C 174.386719 113.386719 173.695312 113.601562 173.035156 113.9375 C 172.378906 114.273438 171.796875 114.707031 171.285156 115.242188 C 170.777344 115.773438 170.371094 116.378906 170.066406 117.050781 C 169.132812 119.183594 168.3125 121.359375 167.609375 123.578125 C 168.347656 121.371094 168.964844 119.128906 169.460938 116.851562 C 169.613281 116.132812 169.640625 115.40625 169.542969 114.671875 C 169.445312 113.941406 169.230469 113.25 168.894531 112.589844 C 168.5625 111.933594 168.125 111.351562 167.59375 110.839844 C 167.058594 110.332031 166.457031 109.925781 165.785156 109.621094 C 163.652344 108.6875 161.476562 107.867188 159.253906 107.164062 C 161.464844 107.902344 163.703125 108.519531 165.980469 109.019531 C 166.703125 109.167969 167.429688 109.195312 168.160156 109.097656 C 168.890625 109 169.585938 108.785156 170.242188 108.449219 C 170.898438 108.117188 171.484375 107.679688 171.992188 107.148438 C 172.5 106.613281 172.90625 106.011719 173.210938 105.339844 C 174.148438 103.207031 174.964844 101.03125 175.667969 98.808594 C 174.929688 101.019531 174.3125 103.257812 173.816406 105.535156 Z M 173.816406 105.535156 " fill-opacity="1" fill-rule="nonzero"/></g></g></g><g clip-path="url(#7fe57dd84e)"><path fill="#f1dd29" d="M 352.011719 214.753906 C 352.046875 215.082031 352.136719 215.394531 352.28125 215.695312 C 352.425781 215.992188 352.613281 216.261719 352.847656 216.496094 C 353.082031 216.730469 353.347656 216.917969 353.648438 217.0625 C 353.945312 217.203125 354.261719 217.292969 354.589844 217.328125 C 355.632812 217.433594 356.675781 217.480469 357.722656 217.472656 C 356.675781 217.464844 355.632812 217.511719 354.589844 217.613281 C 354.261719 217.652344 353.945312 217.742188 353.648438 217.882812 C 353.347656 218.027344 353.082031 218.214844 352.847656 218.449219 C 352.613281 218.683594 352.425781 218.953125 352.28125 219.25 C 352.136719 219.550781 352.046875 219.863281 352.011719 220.191406 C 351.910156 221.234375 351.863281 222.277344 351.871094 223.324219 C 351.878906 222.277344 351.832031 221.234375 351.726562 220.191406 C 351.691406 219.863281 351.601562 219.550781 351.457031 219.25 C 351.316406 218.953125 351.125 218.683594 350.890625 218.449219 C 350.65625 218.214844 350.390625 218.027344 350.09375 217.882812 C 349.792969 217.742188 349.480469 217.652344 349.148438 217.613281 C 348.109375 217.511719 347.066406 217.464844 346.019531 217.472656 C 347.066406 217.480469 348.109375 217.433594 349.148438 217.328125 C 349.480469 217.292969 349.792969 217.203125 350.09375 217.0625 C 350.390625 216.917969 350.65625 216.730469 350.890625 216.496094 C 351.125 216.261719 351.316406 215.992188 351.457031 215.695312 C 351.601562 215.394531 351.691406 215.082031 351.726562 214.753906 C 351.832031 213.710938 351.878906 212.667969 351.871094 211.621094 C 351.863281 212.667969 351.910156 213.710938 352.011719 214.753906 Z M 352.011719 214.753906 " fill-opacity="1" fill-rule="nonzero"/></g><g clip-path="url(#e7ba778c5c)"><path fill="#f1dd29" d="M 357.808594 209.738281 C 357.855469 210.152344 358.023438 210.503906 358.320312 210.800781 C 358.613281 211.09375 358.96875 211.265625 359.382812 211.308594 C 360.019531 211.375 360.65625 211.402344 361.292969 211.398438 C 360.65625 211.390625 360.019531 211.421875 359.382812 211.484375 C 358.96875 211.53125 358.613281 211.699219 358.320312 211.996094 C 358.023438 212.289062 357.855469 212.644531 357.808594 213.058594 C 357.746094 213.695312 357.714844 214.332031 357.722656 214.96875 C 357.726562 214.332031 357.699219 213.695312 357.632812 213.058594 C 357.589844 212.644531 357.417969 212.289062 357.125 211.996094 C 356.828125 211.699219 356.476562 211.53125 356.058594 211.484375 C 355.425781 211.421875 354.789062 211.390625 354.148438 211.398438 C 354.789062 211.402344 355.425781 211.375 356.058594 211.308594 C 356.476562 211.265625 356.828125 211.09375 357.125 210.800781 C 357.417969 210.503906 357.589844 210.152344 357.632812 209.738281 C 357.699219 209.101562 357.726562 208.464844 357.722656 207.824219 C 357.714844 208.464844 357.746094 209.101562 357.808594 209.738281 Z M 357.808594 209.738281 " fill-opacity="1" fill-rule="nonzero"/></g><g clip-path="url(#041c9a873a)"><path fill="#f1dd29" d="M 346.875 218.558594 C 346.949219 219.222656 347.128906 219.859375 347.417969 220.460938 C 347.710938 221.066406 348.089844 221.601562 348.5625 222.078125 C 349.039062 222.550781 349.574219 222.929688 350.179688 223.222656 C 350.785156 223.511719 351.417969 223.691406 352.082031 223.765625 C 354.1875 223.972656 356.292969 224.070312 358.40625 224.050781 C 356.292969 224.035156 354.1875 224.132812 352.082031 224.339844 C 351.417969 224.414062 350.78125 224.59375 350.179688 224.882812 C 349.574219 225.171875 349.039062 225.554688 348.5625 226.027344 C 348.089844 226.5 347.710938 227.039062 347.417969 227.644531 C 347.128906 228.246094 346.949219 228.882812 346.875 229.546875 C 346.667969 231.652344 346.570312 233.757812 346.589844 235.871094 C 346.605469 233.757812 346.507812 231.648438 346.300781 229.546875 C 346.226562 228.882812 346.046875 228.246094 345.757812 227.644531 C 345.46875 227.039062 345.085938 226.5 344.613281 226.027344 C 344.140625 225.554688 343.601562 225.171875 342.996094 224.882812 C 342.394531 224.59375 341.757812 224.414062 341.09375 224.339844 C 338.992188 224.132812 336.882812 224.035156 334.769531 224.050781 C 336.882812 224.070312 338.992188 223.972656 341.09375 223.765625 C 341.757812 223.691406 342.394531 223.511719 342.996094 223.222656 C 343.601562 222.933594 344.140625 222.550781 344.613281 222.078125 C 345.085938 221.605469 345.46875 221.066406 345.757812 220.460938 C 346.046875 219.859375 346.226562 219.222656 346.300781 218.558594 C 346.507812 216.453125 346.605469 214.347656 346.589844 212.234375 C 346.570312 214.347656 346.667969 216.453125 346.875 218.558594 Z M 346.875 218.558594 " fill-opacity="1" fill-rule="nonzero"/></g><g clip-path="url(#906566ca95)"><path fill="#f1dd29" d="M 358.585938 208.425781 C 358.628906 208.832031 358.738281 209.21875 358.914062 209.589844 C 359.09375 209.957031 359.324219 210.285156 359.613281 210.574219 C 359.902344 210.863281 360.230469 211.097656 360.601562 211.273438 C 360.96875 211.449219 361.355469 211.5625 361.761719 211.605469 C 363.046875 211.734375 364.335938 211.792969 365.625 211.78125 C 364.335938 211.769531 363.046875 211.828125 361.761719 211.957031 C 361.355469 212 360.96875 212.113281 360.601562 212.289062 C 360.230469 212.464844 359.902344 212.699219 359.613281 212.988281 C 359.324219 213.277344 359.09375 213.605469 358.914062 213.972656 C 358.738281 214.34375 358.628906 214.730469 358.585938 215.136719 C 358.457031 216.421875 358.398438 217.707031 358.40625 218.996094 C 358.417969 217.707031 358.359375 216.421875 358.230469 215.136719 C 358.1875 214.730469 358.078125 214.34375 357.898438 213.972656 C 357.722656 213.605469 357.492188 213.277344 357.203125 212.988281 C 356.914062 212.699219 356.582031 212.464844 356.214844 212.289062 C 355.847656 212.113281 355.460938 212 355.054688 211.957031 C 353.769531 211.828125 352.480469 211.769531 351.191406 211.78125 C 352.480469 211.792969 353.769531 211.734375 355.054688 211.605469 C 355.460938 211.5625 355.847656 211.449219 356.214844 211.273438 C 356.582031 211.097656 356.914062 210.863281 357.203125 210.574219 C 357.492188 210.285156 357.722656 209.957031 357.898438 209.589844 C 358.078125 209.21875 358.1875 208.832031 358.230469 208.425781 C 358.359375 207.140625 358.417969 205.855469 358.40625 204.566406 C 358.398438 205.855469 358.457031 207.140625 358.585938 208.425781 Z M 358.585938 208.425781 " fill-opacity="1" fill-rule="nonzero"/></g></svg>