<?xml version="1.0" encoding="utf-8"?>
<!-- Generator: Adobe Illustrator 27.2.0, SVG Export Plug-In . SVG Version: 6.00 Build 0)  -->
<svg version="1.1" id="Capa_1" xmlns="http://www.w3.org/2000/svg" xmlns:xlink="http://www.w3.org/1999/xlink" x="0px" y="0px"
	 viewBox="0 0 3840 2160" style="enable-background:new 0 0 3840 2160;" xml:space="preserve">
<style type="text/css">
	.st0{fill:none;}
</style>
<g>
	<path d="M-250,817c23-256.7,130.3-470.8,259.2-566.6s275.6-83.9,407.9-6.5C524.6,306.6,629.1,412,741.6,404.6
		c214.6-14,395.8-433.6,605.5-346.7c188.4,78.1,301.3,541.7,493.9,520.6c114.8-12.6,199.1-197,293.2-321.3
		C2260.9,90,2424.2,24,2576.3,78.7c161.2,57.9,305.9,242.6,469.3,269.7c166.3,27.6,325.9-110.8,488.8-178.7s375.1-2,465.2,261.8
		L3994,817H-250z"/>
	<rect x="-244.3" y="768.5" width="4238.2" height="1456.3"/>
</g>
<path class="st0" d="M1508.3-138.2c0-2.3,0-4.7,0-7"/>
</svg>
