<svg width="67" height="75" viewBox="0 0 67 75" fill="none" xmlns="http://www.w3.org/2000/svg">
<path d="M10.0127 11.7466L9.92914 1.10222L37.066 22.9873C46.8279 30.8617 46.9299 43.8592 37.2939 52.0239L10.5069 74.7L10.4234 64.0628L30.8112 46.7998C33.7447 44.3061 35.3739 40.9794 35.3469 37.539C35.3199 34.0985 33.6388 30.8203 30.6669 28.4133L10.0127 11.7466Z" fill="#CEC724"/>
<path d="M57.4609 5.13455L66.8202 5.48632L46.3208 49.9225C38.9451 65.9074 27.5167 65.4779 20.7896 48.9629L2.10736 3.05405L11.4604 3.40559L25.6832 38.3474C27.7382 43.3754 30.5862 46.2577 33.6113 46.3714C36.6364 46.4851 39.5959 43.8211 41.85 38.9551L57.4609 5.13455Z" fill="white"/>
</svg>
